STARTFONT 2.1
COMMENT converted Oberon font (using FontToBDF by R.Crelier 10.1.91)
FONT Math16.Scn.Fnt
SIZE 16 75 75
FONTBOUNDINGBOX  16 19 0 -5
STARTPROPERTIES 3
FONT_ASCENT 14
FONT_DESCENT 5
DEFAULT_CHAR 0
ENDPROPERTIES
CHARS 97
STARTCHAR c0
ENCODING -1 0
SWIDTH 0 0
DWIDTH 0 0
BBX 0 0 0 0
BITMAP
ENDCHAR
STARTCHAR c9
ENCODING -1 9
SWIDTH 645 0
DWIDTH 20 0
BBX 0 0 0 0
BITMAP
ENDCHAR
STARTCHAR c32
ENCODING -1 32
SWIDTH 322 0
DWIDTH 10 0
BBX 8 13 1 0
BITMAP
0F
30
50
50
90
90
90
90
90
50
50
30
0F
ENDCHAR
STARTCHAR c33
ENCODING -1 33
SWIDTH 419 0
DWIDTH 13 0
BBX 11 13 2 0
BITMAP
FF00
9080
9040
9040
9040
9080
9F00
9100
9080
9080
9040
9020
9020
ENDCHAR
STARTCHAR c34
ENCODING -1 34
SWIDTH 96 0
DWIDTH 3 0
BBX 1 4 1 9
BITMAP
80
80
80
80
ENDCHAR
STARTCHAR c35
ENCODING -1 35
SWIDTH 322 0
DWIDTH 10 0
BBX 8 9 1 0
BITMAP
03
0C
30
C0
30
0C
03
00
FF
ENDCHAR
STARTCHAR c36
ENCODING -1 36
SWIDTH 290 0
DWIDTH 9 0
BBX 9 14 0 -1
BITMAP
0080
0080
0100
0200
0200
0400
0800
0800
1000
2000
2000
4000
8000
8000
ENDCHAR
STARTCHAR c37
ENCODING -1 37
SWIDTH 451 0
DWIDTH 14 0
BBX 12 6 1 2
BITMAP
78E0
8510
8610
8610
8A10
71E0
ENDCHAR
STARTCHAR c38
ENCODING -1 38
SWIDTH 161 0
DWIDTH 5 0
BBX 3 3 1 10
BITMAP
E0
E0
E0
ENDCHAR
STARTCHAR c39
ENCODING -1 39
SWIDTH 322 0
DWIDTH 10 0
BBX 9 9 0 0
BITMAP
1F80
0180
0280
0480
0880
1080
2000
4000
8000
ENDCHAR
STARTCHAR c40
ENCODING -1 40
SWIDTH 322 0
DWIDTH 10 0
BBX 9 9 1 0
BITMAP
FC00
C000
A000
9000
8800
8400
0200
0100
0080
ENDCHAR
STARTCHAR c41
ENCODING -1 41
SWIDTH 322 0
DWIDTH 10 0
BBX 9 9 1 0
BITMAP
0080
0100
0200
8400
8800
9000
A000
C000
FC00
ENDCHAR
STARTCHAR c42
ENCODING -1 42
SWIDTH 322 0
DWIDTH 10 0
BBX 9 9 0 0
BITMAP
8000
4000
2000
1080
0880
0480
0280
0180
1F80
ENDCHAR
STARTCHAR c43
ENCODING -1 43
SWIDTH 451 0
DWIDTH 14 0
BBX 12 7 1 1
BITMAP
1080
2040
4020
FFF0
4020
2040
1080
ENDCHAR
STARTCHAR c44
ENCODING -1 44
SWIDTH 419 0
DWIDTH 13 0
BBX 11 7 1 1
BITMAP
1000
2000
4000
FFE0
4000
2000
1000
ENDCHAR
STARTCHAR c45
ENCODING -1 45
SWIDTH 290 0
DWIDTH 9 0
BBX 7 11 1 0
BITMAP
10
38
54
92
10
10
10
10
10
10
10
ENDCHAR
STARTCHAR c46
ENCODING -1 46
SWIDTH 419 0
DWIDTH 13 0
BBX 11 7 1 1
BITMAP
0100
0080
0040
FFE0
0040
0080
0100
ENDCHAR
STARTCHAR c47
ENCODING -1 47
SWIDTH 290 0
DWIDTH 9 0
BBX 7 11 1 0
BITMAP
10
10
10
10
10
10
10
92
54
38
10
ENDCHAR
STARTCHAR c48
ENCODING -1 48
SWIDTH 193 0
DWIDTH 6 0
BBX 4 5 1 8
BITMAP
60
90
90
90
60
ENDCHAR
STARTCHAR c49
ENCODING -1 49
SWIDTH 290 0
DWIDTH 9 0
BBX 7 10 1 0
BITMAP
10
10
10
FE
10
10
10
00
00
FE
ENDCHAR
STARTCHAR c50
ENCODING -1 50
SWIDTH 161 0
DWIDTH 5 0
BBX 3 4 1 9
BITMAP
A0
A0
A0
A0
ENDCHAR
STARTCHAR c51
ENCODING -1 51
SWIDTH 322 0
DWIDTH 10 0
BBX 8 9 1 0
BITMAP
C0
30
0C
03
0C
30
C0
00
FF
ENDCHAR
STARTCHAR c52
ENCODING -1 52
SWIDTH 290 0
DWIDTH 9 0
BBX 7 7 1 1
BITMAP
82
44
28
10
28
44
82
ENDCHAR
STARTCHAR c53
ENCODING -1 53
SWIDTH 387 0
DWIDTH 12 0
BBX 10 6 1 2
BITMAP
78C0
8500
8600
8600
8A00
71C0
ENDCHAR
STARTCHAR c54
ENCODING -1 54
SWIDTH 290 0
DWIDTH 9 0
BBX 7 13 1 0
BITMAP
E0
18
04
04
02
02
72
82
82
82
82
84
78
ENDCHAR
STARTCHAR c55
ENCODING -1 55
SWIDTH 290 0
DWIDTH 9 0
BBX 5 5 2 2
BITMAP
70
F8
F8
F8
70
ENDCHAR
STARTCHAR c56
ENCODING -1 56
SWIDTH 290 0
DWIDTH 9 0
BBX 7 9 1 0
BITMAP
10
10
00
00
FE
00
00
10
10
ENDCHAR
STARTCHAR c57
ENCODING -1 57
SWIDTH 290 0
DWIDTH 9 0
BBX 7 10 1 0
BITMAP
08
08
08
FE
10
10
FE
20
20
20
ENDCHAR
STARTCHAR c58
ENCODING -1 58
SWIDTH 322 0
DWIDTH 10 0
BBX 8 7 1 1
BITMAP
FF
00
00
FF
00
00
FF
ENDCHAR
STARTCHAR c59
ENCODING -1 59
SWIDTH 322 0
DWIDTH 10 0
BBX 8 7 1 1
BITMAP
61
99
86
00
61
99
86
ENDCHAR
STARTCHAR c60
ENCODING -1 60
SWIDTH 354 0
DWIDTH 11 0
BBX 7 2 2 0
BITMAP
92
92
ENDCHAR
STARTCHAR c61
ENCODING -1 61
SWIDTH 161 0
DWIDTH 5 0
BBX 1 19 2 -5
BITMAP
80
80
80
80
80
80
80
80
80
80
80
80
80
80
80
80
80
80
80
ENDCHAR
STARTCHAR c62
ENCODING -1 62
SWIDTH 258 0
DWIDTH 8 0
BBX 8 1 0 4
BITMAP
FF
ENDCHAR
STARTCHAR c63
ENCODING -1 63
SWIDTH 354 0
DWIDTH 11 0
BBX 9 9 1 -5
BITMAP
0080
0080
1080
2080
4080
FF80
4000
2000
1000
ENDCHAR
STARTCHAR c64
ENCODING -1 64
SWIDTH 387 0
DWIDTH 12 0
BBX 11 13 0 0
BITMAP
40C0
6060
3040
1080
3880
2C80
4680
4380
4100
4180
20C0
2040
C020
ENDCHAR
STARTCHAR c65
ENCODING -1 65
SWIDTH 354 0
DWIDTH 11 0
BBX 9 13 1 0
BITMAP
3C00
4700
8180
8200
8400
6200
0300
0100
0180
0080
6080
B100
1E00
ENDCHAR
STARTCHAR c66
ENCODING -1 66
SWIDTH 483 0
DWIDTH 15 0
BBX 13 13 1 0
BITMAP
3840
44E0
8538
8210
8220
4240
3380
0240
0260
0220
0430
6410
9818
ENDCHAR
STARTCHAR c67
ENCODING -1 67
SWIDTH 387 0
DWIDTH 12 0
BBX 10 14 1 -5
BITMAP
4700
8880
9040
5040
5040
2040
2080
2080
5300
5000
8800
8800
8800
7000
ENDCHAR
STARTCHAR c68
ENCODING -1 68
SWIDTH 354 0
DWIDTH 11 0
BBX 9 9 1 0
BITMAP
3E00
4100
A280
9480
8880
9480
A280
4100
3E00
ENDCHAR
STARTCHAR c69
ENCODING -1 69
SWIDTH 354 0
DWIDTH 11 0
BBX 9 9 1 0
BITMAP
3E00
4100
8880
8880
BE80
8880
8880
4100
3E00
ENDCHAR
STARTCHAR c70
ENCODING -1 70
SWIDTH 354 0
DWIDTH 11 0
BBX 9 13 1 -2
BITMAP
0200
0200
3E00
4500
8480
8880
8880
8880
9080
5100
3E00
2000
2000
ENDCHAR
STARTCHAR c71
ENCODING -1 71
SWIDTH 354 0
DWIDTH 11 0
BBX 9 7 1 1
BITMAP
3E00
4100
8080
8080
8080
8080
8080
ENDCHAR
STARTCHAR c72
ENCODING -1 72
SWIDTH 354 0
DWIDTH 11 0
BBX 9 7 1 1
BITMAP
8080
8080
8080
8080
8080
4100
3E00
ENDCHAR
STARTCHAR c73
ENCODING -1 73
SWIDTH 258 0
DWIDTH 8 0
BBX 6 9 1 0
BITMAP
F0
08
04
04
04
04
04
08
F0
ENDCHAR
STARTCHAR c74
ENCODING -1 74
SWIDTH 225 0
DWIDTH 7 0
BBX 5 9 1 0
BITMAP
E0
10
08
08
08
10
E0
00
F8
ENDCHAR
STARTCHAR c75
ENCODING -1 75
SWIDTH 258 0
DWIDTH 8 0
BBX 7 13 1 -2
BITMAP
04
04
3E
48
88
88
90
90
90
50
3C
20
20
ENDCHAR
STARTCHAR c76
ENCODING -1 76
SWIDTH 258 0
DWIDTH 8 0
BBX 6 9 1 0
BITMAP
3C
40
80
80
80
80
80
40
3C
ENDCHAR
STARTCHAR c77
ENCODING -1 77
SWIDTH 225 0
DWIDTH 7 0
BBX 5 9 1 0
BITMAP
38
40
80
80
80
40
38
00
F8
ENDCHAR
STARTCHAR c78
ENCODING -1 78
SWIDTH 258 0
DWIDTH 8 0
BBX 6 9 1 0
BITMAP
3C
40
80
80
FC
80
80
40
3C
ENDCHAR
STARTCHAR c79
ENCODING -1 79
SWIDTH 258 0
DWIDTH 8 0
BBX 6 13 1 -2
BITMAP
08
08
3C
48
88
88
FC
90
90
50
3C
10
10
ENDCHAR
STARTCHAR c80
ENCODING -1 80
SWIDTH 387 0
DWIDTH 12 0
BBX 10 10 1 -2
BITMAP
0100
0A00
0400
0C00
1200
2200
4100
FFC0
0100
0100
ENDCHAR
STARTCHAR c81
ENCODING -1 81
SWIDTH 322 0
DWIDTH 10 0
BBX 10 13 0 0
BITMAP
FFC0
8040
4080
4080
4080
2100
2100
2100
1200
1200
1200
0C00
0C00
ENDCHAR
STARTCHAR c82
ENCODING -1 82
SWIDTH 322 0
DWIDTH 10 0
BBX 10 13 0 0
BITMAP
8040
8040
4080
4080
4080
3F00
2100
2100
1200
1200
1200
0C00
0C00
ENDCHAR
STARTCHAR c83
ENCODING -1 83
SWIDTH 290 0
DWIDTH 9 0
BBX 6 13 1 0
BITMAP
FC
04
04
04
04
04
FC
04
04
04
04
04
FC
ENDCHAR
STARTCHAR c84
ENCODING -1 84
SWIDTH 258 0
DWIDTH 8 0
BBX 6 9 1 0
BITMAP
F0
08
04
04
FC
04
04
08
F0
ENDCHAR
STARTCHAR c85
ENCODING -1 85
SWIDTH 387 0
DWIDTH 12 0
BBX 8 13 2 0
BITMAP
FF
81
81
81
81
81
81
81
81
81
81
81
81
ENDCHAR
STARTCHAR c86
ENCODING -1 86
SWIDTH 290 0
DWIDTH 9 0
BBX 9 14 0 0
BITMAP
0080
0080
0100
0100
0100
E200
2200
2200
1400
1400
1400
0800
0800
0800
ENDCHAR
STARTCHAR c87
ENCODING -1 87
SWIDTH 129 0
DWIDTH 4 0
BBX 2 2 1 4
BITMAP
C0
C0
ENDCHAR
STARTCHAR c88
ENCODING -1 88
SWIDTH 322 0
DWIDTH 10 0
BBX 8 5 1 1
BITMAP
FF
01
01
01
01
ENDCHAR
STARTCHAR c89
ENCODING -1 89
SWIDTH 290 0
DWIDTH 9 0
BBX 7 9 1 0
BITMAP
10
10
28
28
44
44
44
82
82
ENDCHAR
STARTCHAR c90
ENCODING -1 90
SWIDTH 290 0
DWIDTH 9 0
BBX 7 9 1 0
BITMAP
82
82
44
44
44
28
28
10
10
ENDCHAR
STARTCHAR c91
ENCODING -1 91
SWIDTH 516 0
DWIDTH 16 0
BBX 16 11 0 -1
BITMAP
0420
0810
1008
3FFC
4002
8001
4002
3FFC
1008
0810
0420
ENDCHAR
STARTCHAR c92
ENCODING -1 92
SWIDTH 419 0
DWIDTH 13 0
BBX 12 11 0 -1
BITMAP
0400
0800
1000
3FF0
4000
8000
4000
3FF0
1000
0800
0400
ENDCHAR
STARTCHAR c93
ENCODING -1 93
SWIDTH 354 0
DWIDTH 11 0
BBX 9 13 1 0
BITMAP
0800
1400
2200
6300
A280
2200
2200
2200
2200
2200
2200
2200
2200
ENDCHAR
STARTCHAR c94
ENCODING -1 94
SWIDTH 419 0
DWIDTH 13 0
BBX 12 11 1 -1
BITMAP
0200
0100
0080
FFC0
0020
0010
0020
FFC0
0080
0100
0200
ENDCHAR
STARTCHAR c95
ENCODING -1 95
SWIDTH 354 0
DWIDTH 11 0
BBX 9 13 1 0
BITMAP
2200
2200
2200
2200
2200
2200
2200
2200
A280
6300
2200
1400
0800
ENDCHAR
STARTCHAR c96
ENCODING -1 96
SWIDTH 290 0
DWIDTH 9 0
BBX 5 9 2 0
BITMAP
F8
F8
F8
F8
F8
F8
F8
F8
F8
ENDCHAR
STARTCHAR c97
ENCODING -1 97
SWIDTH 193 0
DWIDTH 6 0
BBX 4 16 1 -3
BITMAP
10
10
20
20
40
40
80
80
80
80
40
40
20
20
10
10
ENDCHAR
STARTCHAR c98
ENCODING -1 98
SWIDTH 354 0
DWIDTH 11 0
BBX 9 9 1 0
BITMAP
8000
8000
8000
8000
FF80
8000
8000
8000
8000
ENDCHAR
STARTCHAR c99
ENCODING -1 99
SWIDTH 354 0
DWIDTH 11 0
BBX 9 10 1 0
BITMAP
8000
8000
8000
FF80
8000
8000
FF80
8000
8000
8000
ENDCHAR
STARTCHAR c100
ENCODING -1 100
SWIDTH 354 0
DWIDTH 11 0
BBX 9 9 1 0
BITMAP
0080
0080
0080
0080
FF80
0080
0080
0080
0080
ENDCHAR
STARTCHAR c101
ENCODING -1 101
SWIDTH 290 0
DWIDTH 9 0
BBX 7 13 1 0
BITMAP
FE
80
40
20
10
08
04
08
10
20
40
80
FE
ENDCHAR
STARTCHAR c102
ENCODING -1 102
SWIDTH 322 0
DWIDTH 10 0
BBX 9 9 0 0
BITMAP
0180
0600
1880
6300
8C00
6300
1880
0600
0180
ENDCHAR
STARTCHAR c103
ENCODING -1 103
SWIDTH 322 0
DWIDTH 10 0
BBX 9 9 1 0
BITMAP
C000
3000
8C00
6300
1880
6300
8C00
3000
C000
ENDCHAR
STARTCHAR c104
ENCODING -1 104
SWIDTH 225 0
DWIDTH 7 0
BBX 5 9 1 0
BITMAP
F8
80
80
80
80
80
80
80
80
ENDCHAR
STARTCHAR c105
ENCODING -1 105
SWIDTH 225 0
DWIDTH 7 0
BBX 5 9 1 0
BITMAP
F8
08
08
08
08
08
08
08
08
ENDCHAR
STARTCHAR c106
ENCODING -1 106
SWIDTH 225 0
DWIDTH 7 0
BBX 5 9 1 0
BITMAP
80
80
80
80
80
80
80
80
F8
ENDCHAR
STARTCHAR c107
ENCODING -1 107
SWIDTH 225 0
DWIDTH 7 0
BBX 5 9 1 0
BITMAP
08
08
08
08
08
08
08
08
F8
ENDCHAR
STARTCHAR c108
ENCODING -1 108
SWIDTH 258 0
DWIDTH 8 0
BBX 4 9 2 0
BITMAP
90
90
90
90
90
90
90
90
90
ENDCHAR
STARTCHAR c109
ENCODING -1 109
SWIDTH 290 0
DWIDTH 9 0
BBX 7 10 1 -1
BITMAP
FE
00
00
10
10
10
FE
10
10
10
ENDCHAR
STARTCHAR c110
ENCODING -1 110
SWIDTH 225 0
DWIDTH 7 0
BBX 5 9 0 0
BITMAP
08
08
10
20
C0
20
10
08
08
ENDCHAR
STARTCHAR c111
ENCODING -1 111
SWIDTH 225 0
DWIDTH 7 0
BBX 5 9 2 0
BITMAP
80
80
40
20
18
20
40
80
80
ENDCHAR
STARTCHAR c112
ENCODING -1 112
SWIDTH 322 0
DWIDTH 10 0
BBX 8 6 1 2
BITMAP
61
99
86
00
00
FF
ENDCHAR
STARTCHAR c113
ENCODING -1 113
SWIDTH 193 0
DWIDTH 6 0
BBX 4 16 1 -3
BITMAP
80
80
40
40
20
20
10
10
10
10
20
20
40
40
80
80
ENDCHAR
STARTCHAR c114
ENCODING -1 114
SWIDTH 258 0
DWIDTH 8 0
BBX 6 13 1 -2
BITMAP
20
20
F0
28
24
24
FC
44
44
48
F0
40
40
ENDCHAR
STARTCHAR c115
ENCODING -1 115
SWIDTH 290 0
DWIDTH 9 0
BBX 8 13 0 -5
BITMAP
18
06
02
01
01
01
11
22
46
F8
40
20
10
ENDCHAR
STARTCHAR c116
ENCODING -1 116
SWIDTH 419 0
DWIDTH 13 0
BBX 11 12 1 -1
BITMAP
1000
2000
4000
FFC0
4000
2100
1080
0040
7FE0
0040
0080
0100
ENDCHAR
STARTCHAR c117
ENCODING -1 117
SWIDTH 258 0
DWIDTH 8 0
BBX 7 10 1 -5
BITMAP
F0
10
10
10
10
10
92
54
38
10
ENDCHAR
STARTCHAR c118
ENCODING -1 118
SWIDTH 290 0
DWIDTH 9 0
BBX 7 15 1 -2
BITMAP
3E
40
80
80
60
58
86
82
C2
34
0C
02
02
04
F8
ENDCHAR
STARTCHAR c119
ENCODING -1 119
SWIDTH 419 0
DWIDTH 13 0
BBX 11 10 1 0
BITMAP
1000
2000
4000
FFE0
0000
0000
FFE0
0040
0080
0100
ENDCHAR
STARTCHAR c120
ENCODING -1 120
SWIDTH 161 0
DWIDTH 5 0
BBX 5 19 0 -5
BITMAP
18
20
20
20
20
20
20
20
20
20
20
20
20
20
20
20
20
20
C0
ENDCHAR
STARTCHAR c121
ENCODING -1 121
SWIDTH 225 0
DWIDTH 7 0
BBX 5 19 1 -5
BITMAP
18
20
20
20
20
20
20
70
A8
A8
A8
70
20
20
20
20
20
20
C0
ENDCHAR
STARTCHAR c122
ENCODING -1 122
SWIDTH 290 0
DWIDTH 9 0
BBX 7 8 1 0
BITMAP
82
82
00
00
00
00
10
10
ENDCHAR
STARTCHAR c123
ENCODING -1 123
SWIDTH 290 0
DWIDTH 9 0
BBX 7 8 1 2
BITMAP
10
10
00
00
FE
00
00
FE
ENDCHAR
STARTCHAR c124
ENCODING -1 124
SWIDTH 129 0
DWIDTH 4 0
BBX 2 2 1 11
BITMAP
C0
C0
ENDCHAR
STARTCHAR c125
ENCODING -1 125
SWIDTH 258 0
DWIDTH 8 0
BBX 7 14 1 -2
BITMAP
10
10
10
FE
10
10
10
10
10
10
10
10
10
10
ENDCHAR
STARTCHAR c126
ENCODING -1 126
SWIDTH 258 0
DWIDTH 8 0
BBX 7 15 1 -3
BITMAP
04
04
04
3E
48
88
88
90
90
90
54
38
20
20
20
ENDCHAR
ENDFONT
